<svg width="21" height="11" viewBox="0 0 21 11" fill="none" xmlns="http://www.w3.org/2000/svg">
<path d="M4.6295 0.44C6.28283 0.44 7.56816 0.898666 8.4855 1.816C9.4135 2.72267 9.8775 4.024 9.8775 5.72C9.8775 7.416 9.4135 8.72267 8.4855 9.64C7.56816 10.5467 6.28283 11 4.6295 11H0.901496V0.44H4.6295ZM4.6295 9.544C5.7495 9.544 6.60283 9.21333 7.1895 8.552C7.78683 7.88 8.0855 6.936 8.0855 5.72C8.0855 4.504 7.78683 3.56533 7.1895 2.904C6.60283 2.232 5.7495 1.896 4.6295 1.896H2.6135V9.544H4.6295ZM12.4171 11V0.44H20.0651V1.912H14.1291V4.952H18.7691V6.392H14.1291V9.528H20.2891V11H12.4171Z" fill="#FCFEFE"/>
</svg>
