<svg width="698" height="71" viewBox="0 0 698 71" fill="none" xmlns="http://www.w3.org/2000/svg">
<path d="M139.17 1.24C142.002 1.24 144.198 1.912 145.758 3.256C147.342 4.576 148.134 6.34 148.134 8.548C148.134 10.972 147.354 12.82 145.794 14.092C144.234 15.364 142.038 16 139.206 16L138.63 16.324H133.914V25H127.83V1.24H139.17ZM138.306 11.932C139.506 11.932 140.406 11.692 141.006 11.212C141.606 10.732 141.906 9.964 141.906 8.908C141.906 7.876 141.606 7.12 141.006 6.64C140.406 6.16 139.506 5.92 138.306 5.92H133.914V11.932H138.306ZM141.942 13.228L149.538 25H142.698L136.614 14.596L141.942 13.228ZM154.451 25V1.24H172.955V6.028H160.643V10.852H170.435V15.352H160.643V20.212H173.423V25H154.451ZM206.466 1.24V25H200.994V14.092L201.174 6.784H201.102L195.234 25H190.23L184.362 6.784H184.29L184.47 14.092V25H178.962V1.24H187.782L191.526 13.336L192.858 18.376H192.93L194.298 13.372L198.006 1.24H206.466ZM224.183 0.879999C226.583 0.879999 228.647 1.372 230.375 2.356C232.127 3.316 233.471 4.708 234.407 6.532C235.343 8.356 235.811 10.552 235.811 13.12C235.811 15.688 235.343 17.884 234.407 19.708C233.471 21.532 232.127 22.936 230.375 23.92C228.647 24.88 226.583 25.36 224.183 25.36C221.783 25.36 219.707 24.88 217.955 23.92C216.203 22.936 214.859 21.532 213.923 19.708C212.987 17.884 212.519 15.688 212.519 13.12C212.519 10.552 212.987 8.356 213.923 6.532C214.859 4.708 216.203 3.316 217.955 2.356C219.707 1.372 221.783 0.879999 224.183 0.879999ZM224.183 5.74C223.031 5.74 222.059 6.016 221.267 6.568C220.475 7.12 219.875 7.948 219.467 9.052C219.059 10.132 218.855 11.488 218.855 13.12C218.855 14.728 219.059 16.084 219.467 17.188C219.875 18.292 220.475 19.12 221.267 19.672C222.059 20.224 223.031 20.5 224.183 20.5C225.335 20.5 226.295 20.224 227.063 19.672C227.855 19.12 228.455 18.292 228.863 17.188C229.271 16.084 229.475 14.728 229.475 13.12C229.475 11.488 229.271 10.132 228.863 9.052C228.455 7.948 227.855 7.12 227.063 6.568C226.295 6.016 225.335 5.74 224.183 5.74ZM260.866 1.24V6.028H253.126V25H246.934V6.028H239.158V1.24H260.866ZM266.205 25V1.24H284.709V6.028H272.397V10.852H282.189V15.352H272.397V20.212H285.177V25H266.205ZM309.009 1.24V25H302.817V1.24H309.009ZM336.058 1.24V6.028H328.318V25H322.126V6.028H314.35V1.24H336.058ZM362.153 0.879999C364.361 0.879999 366.305 1.228 367.985 1.924C369.689 2.596 371.165 3.592 372.413 4.912L369.425 8.908C368.393 7.828 367.277 7.024 366.077 6.496C364.901 5.944 363.557 5.668 362.045 5.668C361.157 5.668 360.437 5.764 359.885 5.956C359.333 6.148 358.937 6.412 358.697 6.748C358.457 7.084 358.337 7.468 358.337 7.9C358.337 8.404 358.565 8.836 359.021 9.196C359.501 9.532 360.269 9.82 361.325 10.06L365.321 10.96C367.697 11.512 369.437 12.316 370.541 13.372C371.645 14.428 372.197 15.832 372.197 17.584C372.197 19.264 371.765 20.692 370.901 21.868C370.037 23.02 368.849 23.896 367.337 24.496C365.825 25.072 364.097 25.36 362.153 25.36C360.569 25.36 359.057 25.192 357.617 24.856C356.177 24.496 354.881 23.992 353.729 23.344C352.577 22.696 351.605 21.952 350.813 21.112L353.801 16.972C354.401 17.668 355.133 18.292 355.997 18.844C356.885 19.372 357.845 19.792 358.877 20.104C359.933 20.416 361.001 20.572 362.081 20.572C362.921 20.572 363.617 20.488 364.169 20.32C364.745 20.152 365.165 19.9 365.429 19.564C365.693 19.228 365.825 18.832 365.825 18.376C365.825 17.872 365.645 17.452 365.285 17.116C364.925 16.756 364.241 16.456 363.233 16.216L358.841 15.244C357.497 14.932 356.297 14.524 355.241 14.02C354.209 13.492 353.393 12.796 352.793 11.932C352.193 11.044 351.893 9.94 351.893 8.62C351.893 7.132 352.301 5.812 353.117 4.66C353.933 3.484 355.109 2.56 356.645 1.888C358.181 1.216 360.017 0.879999 362.153 0.879999ZM388.525 0.879999C390.925 0.879999 392.989 1.372 394.717 2.356C396.469 3.316 397.813 4.708 398.749 6.532C399.685 8.356 400.153 10.552 400.153 13.12C400.153 15.688 399.685 17.884 398.749 19.708C397.813 21.532 396.469 22.936 394.717 23.92C392.989 24.88 390.925 25.36 388.525 25.36C386.125 25.36 384.049 24.88 382.297 23.92C380.545 22.936 379.201 21.532 378.265 19.708C377.329 17.884 376.861 15.688 376.861 13.12C376.861 10.552 377.329 8.356 378.265 6.532C379.201 4.708 380.545 3.316 382.297 2.356C384.049 1.372 386.125 0.879999 388.525 0.879999ZM388.525 5.74C387.373 5.74 386.401 6.016 385.609 6.568C384.817 7.12 384.217 7.948 383.809 9.052C383.401 10.132 383.197 11.488 383.197 13.12C383.197 14.728 383.401 16.084 383.809 17.188C384.217 18.292 384.817 19.12 385.609 19.672C386.401 20.224 387.373 20.5 388.525 20.5C389.677 20.5 390.637 20.224 391.405 19.672C392.197 19.12 392.797 18.292 393.205 17.188C393.613 16.084 393.817 14.728 393.817 13.12C393.817 11.488 393.613 10.132 393.205 9.052C392.797 7.948 392.197 7.12 391.405 6.568C390.637 6.016 389.677 5.74 388.525 5.74ZM412.404 20.212H424.32V25H406.212V1.24H412.404V20.212ZM450.229 1.24V15.316C450.229 18.676 449.329 21.196 447.529 22.876C445.753 24.532 443.113 25.36 439.609 25.36C436.129 25.36 433.489 24.532 431.689 22.876C429.889 21.196 428.989 18.676 428.989 15.316V1.24H435.217V15.424C435.217 17.128 435.577 18.4 436.297 19.24C437.041 20.08 438.145 20.5 439.609 20.5C441.097 20.5 442.201 20.08 442.921 19.24C443.665 18.4 444.037 17.128 444.037 15.424V1.24H450.229ZM476.796 1.24V6.028H469.056V25H462.864V6.028H455.088V1.24H476.796ZM488.327 1.24V25H482.135V1.24H488.327ZM506.052 0.879999C508.452 0.879999 510.516 1.372 512.244 2.356C513.996 3.316 515.34 4.708 516.276 6.532C517.212 8.356 517.68 10.552 517.68 13.12C517.68 15.688 517.212 17.884 516.276 19.708C515.34 21.532 513.996 22.936 512.244 23.92C510.516 24.88 508.452 25.36 506.052 25.36C503.652 25.36 501.576 24.88 499.824 23.92C498.072 22.936 496.728 21.532 495.792 19.708C494.856 17.884 494.388 15.688 494.388 13.12C494.388 10.552 494.856 8.356 495.792 6.532C496.728 4.708 498.072 3.316 499.824 2.356C501.576 1.372 503.652 0.879999 506.052 0.879999ZM506.052 5.74C504.9 5.74 503.928 6.016 503.136 6.568C502.344 7.12 501.744 7.948 501.336 9.052C500.928 10.132 500.724 11.488 500.724 13.12C500.724 14.728 500.928 16.084 501.336 17.188C501.744 18.292 502.344 19.12 503.136 19.672C503.928 20.224 504.9 20.5 506.052 20.5C507.204 20.5 508.164 20.224 508.932 19.672C509.724 19.12 510.324 18.292 510.732 17.188C511.14 16.084 511.344 14.728 511.344 13.12C511.344 11.488 511.14 10.132 510.732 9.052C510.324 7.948 509.724 7.12 508.932 6.568C508.164 6.016 507.204 5.74 506.052 5.74ZM545.159 1.24V25H538.283L530.903 12.148L529.103 8.62H529.067L529.211 13.012V25H523.739V1.24H530.615L537.995 14.092L539.795 17.62H539.831L539.687 13.228V1.24H545.159ZM561.511 0.879999C563.719 0.879999 565.663 1.228 567.343 1.924C569.047 2.596 570.523 3.592 571.771 4.912L568.783 8.908C567.751 7.828 566.635 7.024 565.435 6.496C564.259 5.944 562.915 5.668 561.403 5.668C560.515 5.668 559.795 5.764 559.243 5.956C558.691 6.148 558.295 6.412 558.055 6.748C557.815 7.084 557.695 7.468 557.695 7.9C557.695 8.404 557.923 8.836 558.379 9.196C558.859 9.532 559.627 9.82 560.683 10.06L564.679 10.96C567.055 11.512 568.795 12.316 569.899 13.372C571.003 14.428 571.555 15.832 571.555 17.584C571.555 19.264 571.123 20.692 570.259 21.868C569.395 23.02 568.207 23.896 566.695 24.496C565.183 25.072 563.455 25.36 561.511 25.36C559.927 25.36 558.415 25.192 556.975 24.856C555.535 24.496 554.239 23.992 553.087 23.344C551.935 22.696 550.963 21.952 550.171 21.112L553.159 16.972C553.759 17.668 554.491 18.292 555.355 18.844C556.243 19.372 557.203 19.792 558.235 20.104C559.291 20.416 560.359 20.572 561.439 20.572C562.279 20.572 562.975 20.488 563.527 20.32C564.103 20.152 564.523 19.9 564.787 19.564C565.051 19.228 565.183 18.832 565.183 18.376C565.183 17.872 565.003 17.452 564.643 17.116C564.283 16.756 563.599 16.456 562.591 16.216L558.199 15.244C556.855 14.932 555.655 14.524 554.599 14.02C553.567 13.492 552.751 12.796 552.151 11.932C551.551 11.044 551.251 9.94 551.251 8.62C551.251 7.132 551.659 5.812 552.475 4.66C553.291 3.484 554.467 2.56 556.003 1.888C557.539 1.216 559.375 0.879999 561.511 0.879999Z" fill="#FCFEFE"/>
<path d="M7.99008 50.92C9.46208 50.92 10.7581 51.152 11.8781 51.616C13.0141 52.064 13.9981 52.728 14.8301 53.608L12.8381 56.272C12.1501 55.552 11.4061 55.016 10.6061 54.664C9.82208 54.296 8.92608 54.112 7.91808 54.112C7.32608 54.112 6.84608 54.176 6.47808 54.304C6.11008 54.432 5.84608 54.608 5.68608 54.832C5.52608 55.056 5.44608 55.312 5.44608 55.6C5.44608 55.936 5.59808 56.224 5.90208 56.464C6.22208 56.688 6.73408 56.88 7.43808 57.04L10.1021 57.64C11.6861 58.008 12.8461 58.544 13.5821 59.248C14.3181 59.952 14.6861 60.888 14.6861 62.056C14.6861 63.176 14.3981 64.128 13.8221 64.912C13.2461 65.68 12.4541 66.264 11.4461 66.664C10.4381 67.048 9.28608 67.24 7.99008 67.24C6.93408 67.24 5.92608 67.128 4.96608 66.904C4.00608 66.664 3.14208 66.328 2.37408 65.896C1.60608 65.464 0.958082 64.968 0.430082 64.408L2.42208 61.648C2.82208 62.112 3.31008 62.528 3.88608 62.896C4.47808 63.248 5.11808 63.528 5.80608 63.736C6.51008 63.944 7.22208 64.048 7.94208 64.048C8.50208 64.048 8.96608 63.992 9.33408 63.88C9.71808 63.768 9.99808 63.6 10.1741 63.376C10.3501 63.152 10.4381 62.888 10.4381 62.584C10.4381 62.248 10.3181 61.968 10.0781 61.744C9.83808 61.504 9.38208 61.304 8.71008 61.144L5.78208 60.496C4.88608 60.288 4.08608 60.016 3.38208 59.68C2.69408 59.328 2.15008 58.864 1.75008 58.288C1.35008 57.696 1.15008 56.96 1.15008 56.08C1.15008 55.088 1.42208 54.208 1.96608 53.44C2.51008 52.656 3.29408 52.04 4.31808 51.592C5.34208 51.144 6.56608 50.92 7.99008 50.92ZM25.5708 50.92C27.1708 50.92 28.5468 51.248 29.6988 51.904C30.8668 52.544 31.7628 53.472 32.3868 54.688C33.0108 55.904 33.3228 57.368 33.3228 59.08C33.3228 60.792 33.0108 62.256 32.3868 63.472C31.7628 64.688 30.8668 65.624 29.6988 66.28C28.5468 66.92 27.1708 67.24 25.5708 67.24C23.9708 67.24 22.5868 66.92 21.4188 66.28C20.2508 65.624 19.3548 64.688 18.7308 63.472C18.1068 62.256 17.7948 60.792 17.7948 59.08C17.7948 57.368 18.1068 55.904 18.7308 54.688C19.3548 53.472 20.2508 52.544 21.4188 51.904C22.5868 51.248 23.9708 50.92 25.5708 50.92ZM25.5708 54.16C24.8028 54.16 24.1548 54.344 23.6268 54.712C23.0988 55.08 22.6988 55.632 22.4268 56.368C22.1548 57.088 22.0188 57.992 22.0188 59.08C22.0188 60.152 22.1548 61.056 22.4268 61.792C22.6988 62.528 23.0988 63.08 23.6268 63.448C24.1548 63.816 24.8028 64 25.5708 64C26.3388 64 26.9788 63.816 27.4908 63.448C28.0188 63.08 28.4188 62.528 28.6908 61.792C28.9628 61.056 29.0988 60.152 29.0988 59.08C29.0988 57.992 28.9628 57.088 28.6908 56.368C28.4188 55.632 28.0188 55.08 27.4908 54.712C26.9788 54.344 26.3388 54.16 25.5708 54.16ZM49.6741 54.352H41.4901V57.712H48.0181V60.904H41.4901V67H37.3621V51.16H49.6741V54.352ZM66.5775 51.16V54.352H61.4175V67H57.2895V54.352H52.1055V51.16H66.5775ZM73.1851 67L68.6251 51.16H73.0171L75.7051 63.664L78.5371 51.16H82.2811L85.1851 63.64L87.8251 51.16H92.0731L87.4891 67H83.0011L81.1291 59.32L80.4091 55.456H80.3611L79.6651 59.32L77.8171 67H73.1851ZM108.331 67H104.083L102.979 63.424H97.5549L96.4269 67H92.2749L97.8429 51.16H102.787L108.331 67ZM98.3229 60.616H102.211L100.267 54.208L98.3229 60.616ZM118.933 51.16C120.821 51.16 122.285 51.608 123.325 52.504C124.381 53.384 124.909 54.56 124.909 56.032C124.909 57.648 124.389 58.88 123.349 59.728C122.309 60.576 120.845 61 118.957 61L118.573 61.216H115.429V67H111.373V51.16H118.933ZM118.357 58.288C119.157 58.288 119.757 58.128 120.157 57.808C120.557 57.488 120.757 56.976 120.757 56.272C120.757 55.584 120.557 55.08 120.157 54.76C119.757 54.44 119.157 54.28 118.357 54.28H115.429V58.288H118.357ZM120.781 59.152L125.845 67H121.285L117.229 60.064L120.781 59.152ZM129.12 67V51.16H141.456V54.352H133.248V57.568H139.776V60.568H133.248V63.808H141.768V67H129.12ZM160.8 51.16C162.096 51.16 163.2 51.368 164.112 51.784C165.024 52.2 165.72 52.8 166.2 53.584C166.68 54.368 166.92 55.32 166.92 56.44C166.92 57.56 166.68 58.512 166.2 59.296C165.72 60.08 165.024 60.68 164.112 61.096C163.2 61.512 162.096 61.72 160.8 61.72H157.656V67H153.528V51.16H160.8ZM160.152 58.624C161.016 58.624 161.664 58.448 162.096 58.096C162.544 57.728 162.768 57.176 162.768 56.44C162.768 55.704 162.544 55.16 162.096 54.808C161.664 54.44 161.016 54.256 160.152 54.256H157.656V58.624H160.152ZM174.887 63.808H182.831V67H170.759V51.16H174.887V63.808ZM200.797 67H196.549L195.445 63.424H190.021L188.893 67H184.741L190.309 51.16H195.253L200.797 67ZM190.789 60.616H194.677L192.733 54.208L190.789 60.616ZM218.119 51.16V67H213.535L208.615 58.432L207.415 56.08H207.391L207.487 59.008V67H203.839V51.16H208.423L213.343 59.728L214.543 62.08H214.567L214.471 59.152V51.16H218.119ZM237.108 51.16V67H232.524L227.604 58.432L226.404 56.08H226.38L226.476 59.008V67H222.828V51.16H227.412L232.332 59.728L233.532 62.08H233.556L233.46 59.152V51.16H237.108ZM245.945 51.16V67H241.817V51.16H245.945ZM264.937 51.16V67H260.353L255.433 58.432L254.233 56.08H254.209L254.305 59.008V67H250.657V51.16H255.241L260.161 59.728L261.361 62.08H261.385L261.289 59.152V51.16H264.937ZM276.199 67.24C274.791 67.24 273.535 66.928 272.431 66.304C271.343 65.68 270.495 64.76 269.887 63.544C269.279 62.328 268.975 60.848 268.975 59.104C268.975 57.392 269.295 55.928 269.935 54.712C270.575 53.496 271.487 52.56 272.671 51.904C273.871 51.248 275.279 50.92 276.895 50.92C278.687 50.92 280.135 51.248 281.239 51.904C282.343 52.544 283.199 53.568 283.807 54.976L279.991 56.488C279.783 55.672 279.415 55.08 278.887 54.712C278.359 54.344 277.703 54.16 276.919 54.16C276.135 54.16 275.463 54.352 274.903 54.736C274.343 55.104 273.919 55.656 273.631 56.392C273.343 57.112 273.199 58.008 273.199 59.08C273.199 60.2 273.343 61.136 273.631 61.888C273.935 62.64 274.375 63.2 274.951 63.568C275.543 63.92 276.271 64.096 277.135 64.096C277.599 64.096 278.023 64.04 278.407 63.928C278.791 63.816 279.127 63.656 279.415 63.448C279.703 63.224 279.927 62.952 280.087 62.632C280.247 62.296 280.327 61.904 280.327 61.456V61.216H276.703V58.456H283.831V67H281.023L280.711 63.28L281.383 63.856C281.047 64.944 280.439 65.784 279.559 66.376C278.695 66.952 277.575 67.24 276.199 67.24ZM289.846 62.872C290.438 62.872 290.926 63.008 291.31 63.28C291.694 63.552 291.974 63.912 292.15 64.36C292.342 64.792 292.438 65.28 292.438 65.824C292.438 66.544 292.278 67.232 291.958 67.888C291.654 68.56 291.246 69.144 290.734 69.64C290.238 70.152 289.694 70.536 289.102 70.792L287.446 69.568C287.894 69.392 288.302 69.168 288.67 68.896C289.054 68.624 289.382 68.328 289.654 68.008C289.942 67.688 290.158 67.36 290.302 67.024L290.182 66.952C290.102 67.016 289.998 67.064 289.87 67.096C289.742 67.128 289.574 67.144 289.366 67.144C289.078 67.144 288.782 67.072 288.478 66.928C288.19 66.784 287.942 66.568 287.734 66.28C287.542 65.992 287.446 65.624 287.446 65.176C287.446 64.664 287.558 64.24 287.782 63.904C288.006 63.568 288.302 63.312 288.67 63.136C289.038 62.96 289.43 62.872 289.846 62.872ZM311.138 51.16C313.618 51.16 315.514 51.848 316.826 53.224C318.154 54.6 318.818 56.552 318.818 59.08C318.818 61.608 318.154 63.56 316.826 64.936C315.514 66.312 313.618 67 311.138 67H304.418V51.16H311.138ZM310.73 63.88C312.074 63.88 313.05 63.48 313.658 62.68C314.282 61.864 314.594 60.664 314.594 59.08C314.594 57.496 314.282 56.304 313.658 55.504C313.05 54.688 312.074 54.28 310.73 54.28H308.546V63.88H310.73ZM322.845 67V51.16H335.181V54.352H326.973V57.568H333.501V60.568H326.973V63.808H335.493V67H322.845ZM353.682 51.16L348.066 67H343.218L337.578 51.16H341.922L344.826 60.736L345.69 63.856L346.53 60.784L349.482 51.16H353.682ZM356.768 67V51.16H369.104V54.352H360.896V57.568H367.424V60.568H360.896V63.808H369.416V67H356.768ZM377.237 63.808H385.181V67H373.109V51.16H377.237V63.808ZM395.335 50.92C396.935 50.92 398.311 51.248 399.463 51.904C400.631 52.544 401.527 53.472 402.151 54.688C402.775 55.904 403.087 57.368 403.087 59.08C403.087 60.792 402.775 62.256 402.151 63.472C401.527 64.688 400.631 65.624 399.463 66.28C398.311 66.92 396.935 67.24 395.335 67.24C393.735 67.24 392.351 66.92 391.183 66.28C390.015 65.624 389.119 64.688 388.495 63.472C387.871 62.256 387.559 60.792 387.559 59.08C387.559 57.368 387.871 55.904 388.495 54.688C389.119 53.472 390.015 52.544 391.183 51.904C392.351 51.248 393.735 50.92 395.335 50.92ZM395.335 54.16C394.567 54.16 393.919 54.344 393.391 54.712C392.863 55.08 392.463 55.632 392.191 56.368C391.919 57.088 391.783 57.992 391.783 59.08C391.783 60.152 391.919 61.056 392.191 61.792C392.463 62.528 392.863 63.08 393.391 63.448C393.919 63.816 394.567 64 395.335 64C396.103 64 396.743 63.816 397.255 63.448C397.783 63.08 398.183 62.528 398.455 61.792C398.727 61.056 398.863 60.152 398.863 59.08C398.863 57.992 398.727 57.088 398.455 56.368C398.183 55.632 397.783 55.08 397.255 54.712C396.743 54.344 396.103 54.16 395.335 54.16ZM414.398 51.16C415.694 51.16 416.798 51.368 417.71 51.784C418.622 52.2 419.318 52.8 419.798 53.584C420.278 54.368 420.518 55.32 420.518 56.44C420.518 57.56 420.278 58.512 419.798 59.296C419.318 60.08 418.622 60.68 417.71 61.096C416.798 61.512 415.694 61.72 414.398 61.72H411.254V67H407.126V51.16H414.398ZM413.75 58.624C414.614 58.624 415.262 58.448 415.694 58.096C416.142 57.728 416.366 57.176 416.366 56.44C416.366 55.704 416.142 55.16 415.694 54.808C415.262 54.44 414.614 54.256 413.75 54.256H411.254V58.624H413.75ZM442.693 51.16V67H439.045V59.728L439.165 54.856H439.117L435.205 67H431.869L427.957 54.856H427.909L428.029 59.728V67H424.357V51.16H430.237L432.733 59.224L433.621 62.584H433.669L434.581 59.248L437.053 51.16H442.693ZM447.401 67V51.16H459.737V54.352H451.529V57.568H458.057V60.568H451.529V63.808H460.049V67H447.401ZM478.022 51.16V67H473.438L468.518 58.432L467.318 56.08H467.294L467.39 59.008V67H463.742V51.16H468.326L473.246 59.728L474.446 62.08H474.47L474.374 59.152V51.16H478.022ZM496.051 51.16V54.352H490.891V67H486.763V54.352H481.579V51.16H496.051ZM498.29 62.872C498.882 62.872 499.37 63.008 499.754 63.28C500.138 63.552 500.418 63.912 500.594 64.36C500.786 64.792 500.882 65.28 500.882 65.824C500.882 66.544 500.722 67.232 500.402 67.888C500.098 68.56 499.69 69.144 499.178 69.64C498.682 70.152 498.138 70.536 497.546 70.792L495.89 69.568C496.338 69.392 496.746 69.168 497.114 68.896C497.498 68.624 497.826 68.328 498.098 68.008C498.386 67.688 498.602 67.36 498.746 67.024L498.626 66.952C498.546 67.016 498.442 67.064 498.314 67.096C498.186 67.128 498.018 67.144 497.81 67.144C497.522 67.144 497.226 67.072 496.922 66.928C496.634 66.784 496.386 66.568 496.178 66.28C495.986 65.992 495.89 65.624 495.89 65.176C495.89 64.664 496.002 64.24 496.226 63.904C496.45 63.568 496.746 63.312 497.114 63.136C497.482 62.96 497.874 62.872 498.29 62.872ZM526.902 62.464C526.598 63.568 526.11 64.48 525.438 65.2C524.766 65.904 523.966 66.424 523.038 66.76C522.11 67.08 521.086 67.24 519.966 67.24C518.366 67.24 516.982 66.92 515.814 66.28C514.646 65.624 513.75 64.688 513.126 63.472C512.502 62.256 512.19 60.792 512.19 59.08C512.19 57.368 512.502 55.904 513.126 54.688C513.75 53.472 514.646 52.544 515.814 51.904C516.982 51.248 518.358 50.92 519.942 50.92C521.046 50.92 522.062 51.08 522.99 51.4C523.918 51.704 524.702 52.176 525.342 52.816C525.982 53.456 526.438 54.28 526.71 55.288L523.086 56.752C522.862 55.76 522.494 55.08 521.982 54.712C521.486 54.344 520.854 54.16 520.086 54.16C519.334 54.16 518.678 54.344 518.118 54.712C517.574 55.08 517.15 55.632 516.846 56.368C516.558 57.088 516.414 57.992 516.414 59.08C516.414 60.152 516.55 61.056 516.822 61.792C517.094 62.528 517.502 63.08 518.046 63.448C518.606 63.816 519.294 64 520.11 64C520.878 64 521.526 63.792 522.054 63.376C522.598 62.944 522.966 62.288 523.158 61.408L526.902 62.464ZM537.502 50.92C539.102 50.92 540.478 51.248 541.63 51.904C542.798 52.544 543.694 53.472 544.318 54.688C544.942 55.904 545.254 57.368 545.254 59.08C545.254 60.792 544.942 62.256 544.318 63.472C543.694 64.688 542.798 65.624 541.63 66.28C540.478 66.92 539.102 67.24 537.502 67.24C535.902 67.24 534.518 66.92 533.35 66.28C532.182 65.624 531.286 64.688 530.662 63.472C530.038 62.256 529.726 60.792 529.726 59.08C529.726 57.368 530.038 55.904 530.662 54.688C531.286 53.472 532.182 52.544 533.35 51.904C534.518 51.248 535.902 50.92 537.502 50.92ZM537.502 54.16C536.734 54.16 536.086 54.344 535.558 54.712C535.03 55.08 534.63 55.632 534.358 56.368C534.086 57.088 533.95 57.992 533.95 59.08C533.95 60.152 534.086 61.056 534.358 61.792C534.63 62.528 535.03 63.08 535.558 63.448C536.086 63.816 536.734 64 537.502 64C538.27 64 538.91 63.816 539.422 63.448C539.95 63.08 540.35 62.528 540.622 61.792C540.894 61.056 541.03 60.152 541.03 59.08C541.03 57.992 540.894 57.088 540.622 56.368C540.35 55.632 539.95 55.08 539.422 54.712C538.91 54.344 538.27 54.16 537.502 54.16ZM563.573 51.16V67H558.989L554.069 58.432L552.869 56.08H552.845L552.941 59.008V67H549.293V51.16H553.877L558.797 59.728L559.997 62.08H560.021L559.925 59.152V51.16H563.573ZM574.474 50.92C575.946 50.92 577.242 51.152 578.362 51.616C579.498 52.064 580.482 52.728 581.314 53.608L579.322 56.272C578.634 55.552 577.89 55.016 577.09 54.664C576.306 54.296 575.41 54.112 574.402 54.112C573.81 54.112 573.33 54.176 572.962 54.304C572.594 54.432 572.33 54.608 572.17 54.832C572.01 55.056 571.93 55.312 571.93 55.6C571.93 55.936 572.082 56.224 572.386 56.464C572.706 56.688 573.218 56.88 573.922 57.04L576.586 57.64C578.17 58.008 579.33 58.544 580.066 59.248C580.802 59.952 581.17 60.888 581.17 62.056C581.17 63.176 580.882 64.128 580.306 64.912C579.73 65.68 578.938 66.264 577.93 66.664C576.922 67.048 575.77 67.24 574.474 67.24C573.418 67.24 572.41 67.128 571.45 66.904C570.49 66.664 569.626 66.328 568.858 65.896C568.09 65.464 567.442 64.968 566.914 64.408L568.906 61.648C569.306 62.112 569.794 62.528 570.37 62.896C570.962 63.248 571.602 63.528 572.29 63.736C572.994 63.944 573.706 64.048 574.426 64.048C574.986 64.048 575.45 63.992 575.818 63.88C576.202 63.768 576.482 63.6 576.658 63.376C576.834 63.152 576.922 62.888 576.922 62.584C576.922 62.248 576.802 61.968 576.562 61.744C576.322 61.504 575.866 61.304 575.194 61.144L572.266 60.496C571.37 60.288 570.57 60.016 569.866 59.68C569.178 59.328 568.634 58.864 568.234 58.288C567.834 57.696 567.634 56.96 567.634 56.08C567.634 55.088 567.906 54.208 568.45 53.44C568.994 52.656 569.778 52.04 570.802 51.592C571.826 51.144 573.05 50.92 574.474 50.92ZM598.799 51.16V60.544C598.799 62.784 598.199 64.464 596.999 65.584C595.815 66.688 594.055 67.24 591.719 67.24C589.399 67.24 587.639 66.688 586.439 65.584C585.239 64.464 584.639 62.784 584.639 60.544V51.16H588.791V60.616C588.791 61.752 589.031 62.6 589.511 63.16C590.007 63.72 590.743 64 591.719 64C592.711 64 593.447 63.72 593.927 63.16C594.423 62.6 594.671 61.752 594.671 60.616V51.16H598.799ZM607.318 63.808H615.262V67H603.19V51.16H607.318V63.808ZM628.89 51.16V54.352H623.73V67H619.602V54.352H614.418V51.16H628.89ZM644.857 67H640.609L639.505 63.424H634.081L632.953 67H628.801L634.369 51.16H639.313L644.857 67ZM634.849 60.616H638.737L636.793 54.208L634.849 60.616ZM662.18 51.16V67H657.596L652.676 58.432L651.476 56.08H651.452L651.548 59.008V67H647.9V51.16H652.484L657.404 59.728L658.604 62.08H658.628L658.532 59.152V51.16H662.18ZM680.929 62.464C680.625 63.568 680.137 64.48 679.465 65.2C678.793 65.904 677.993 66.424 677.065 66.76C676.137 67.08 675.113 67.24 673.993 67.24C672.393 67.24 671.009 66.92 669.841 66.28C668.673 65.624 667.777 64.688 667.153 63.472C666.529 62.256 666.217 60.792 666.217 59.08C666.217 57.368 666.529 55.904 667.153 54.688C667.777 53.472 668.673 52.544 669.841 51.904C671.009 51.248 672.385 50.92 673.969 50.92C675.073 50.92 676.089 51.08 677.017 51.4C677.945 51.704 678.729 52.176 679.369 52.816C680.009 53.456 680.465 54.28 680.737 55.288L677.113 56.752C676.889 55.76 676.521 55.08 676.009 54.712C675.513 54.344 674.881 54.16 674.113 54.16C673.361 54.16 672.705 54.344 672.145 54.712C671.601 55.08 671.177 55.632 670.873 56.368C670.585 57.088 670.441 57.992 670.441 59.08C670.441 60.152 670.577 61.056 670.849 61.792C671.121 62.528 671.529 63.08 672.073 63.448C672.633 63.816 673.321 64 674.137 64C674.905 64 675.553 63.792 676.081 63.376C676.625 62.944 676.993 62.288 677.185 61.408L680.929 62.464ZM697.708 51.16L692.116 61.216V67H687.988V61.216L682.396 51.16H686.668L688.9 55.504L690.076 58.144L691.276 55.504L693.508 51.16H697.708Z" fill="#257E94"/>
</svg>
