<svg width="25" height="30" viewBox="0 0 25 30" fill="none" xmlns="http://www.w3.org/2000/svg">
<path d="M23.4523 2.47331C23.278 2.3323 23.0743 2.23214 22.8562 2.18021C22.6381 2.12828 22.4111 2.12589 22.192 2.17321C20.5886 2.50923 18.9334 2.51351 17.3284 2.18579C15.7233 1.85807 14.2023 1.20528 12.859 0.267617C12.6079 0.0933713 12.3095 0 12.0038 0C11.6981 0 11.3997 0.0933713 11.1485 0.267617C9.80521 1.20528 8.28421 1.85807 6.67915 2.18579C5.07408 2.51351 3.41893 2.50923 1.81558 2.17321C1.59642 2.12589 1.36944 2.12828 1.15132 2.18021C0.933205 2.23214 0.7295 2.3323 0.555182 2.47331C0.381097 2.61453 0.240865 2.79296 0.144792 2.99549C0.0487194 3.19803 -0.000753521 3.41951 8.67494e-06 3.64367V14.8222C-0.0013253 16.9735 0.511328 19.094 1.49528 21.007C2.47923 22.9201 3.906 24.5705 5.65678 25.8206L11.1335 29.7218C11.3876 29.9028 11.6918 30 12.0038 30C12.3157 30 12.6199 29.9028 12.874 29.7218L18.3508 25.8206C20.1015 24.5705 21.5283 22.9201 22.5123 21.007C23.4962 19.094 24.0089 16.9735 24.0075 14.8222V3.64367C24.0083 3.41951 23.9588 3.19803 23.8627 2.99549C23.7667 2.79296 23.6264 2.61453 23.4523 2.47331ZM21.0066 14.8222C21.0077 16.4948 20.6094 18.1436 19.8447 19.6312C19.08 21.1188 17.9711 22.4023 16.6102 23.3749L12.0038 26.6609L7.39732 23.3749C6.03645 22.4023 4.92753 21.1188 4.16284 19.6312C3.39814 18.1436 2.9998 16.4948 3.00095 14.8222V5.36921C6.14657 5.63845 9.29698 4.9086 12.0038 3.28356C14.7106 4.9086 17.861 5.63845 21.0066 5.36921V14.8222ZM14.3145 11.3861L10.2782 15.4374L8.94281 14.0869C8.66026 13.8044 8.27705 13.6457 7.87747 13.6457C7.4779 13.6457 7.09469 13.8044 6.81214 14.0869C6.5296 14.3695 6.37087 14.7527 6.37087 15.1523C6.37087 15.5519 6.5296 15.9351 6.81214 16.2176L9.21289 18.6184C9.35238 18.759 9.51833 18.8706 9.70118 18.9468C9.88403 19.023 10.0801 19.0622 10.2782 19.0622C10.4763 19.0622 10.6724 19.023 10.8553 18.9468C11.0381 18.8706 11.2041 18.759 11.3436 18.6184L16.5052 13.5018C16.7877 13.2192 16.9464 12.836 16.9464 12.4364C16.9464 12.0368 16.7877 11.6536 16.5052 11.3711C16.2226 11.0885 15.8394 10.9298 15.4398 10.9298C15.0403 10.9298 14.6571 11.0885 14.3745 11.3711L14.3145 11.3861Z" fill="#BA2029"/>
</svg>
