<svg width="266" height="54" viewBox="0 0 266 54" fill="none" xmlns="http://www.w3.org/2000/svg">
<path d="M25.5807 32.0439C25.5807 29.2747 24.1817 26.7033 21.5837 25.5164C19.785 24.7252 18.1862 24.7252 17.9864 24.7252C16.3876 24.7252 14.9886 23.7362 14.9886 21.956C14.9886 19.978 16.3876 18.989 17.9864 18.989C19.5852 18.989 20.9841 19.7802 20.9841 21.5604V21.7582H25.181H25.5807V21.5604C25.5807 17.4066 22.1832 14.6373 17.9864 14.6373C13.9894 14.6373 10.3921 17.4066 10.3921 21.956C10.3921 24.7252 11.791 26.9011 14.3891 28.0879C16.1877 28.8791 17.7865 28.8791 17.9864 28.8791C19.3853 28.8791 20.9841 30.0659 20.9841 31.8461C20.9841 32.0439 20.9841 32.2417 20.9841 32.4395C20.9841 32.6373 20.7843 32.8351 20.7843 33.0329C20.3846 33.8241 19.5852 34.2197 18.7858 34.4175C18.5859 34.4175 18.3861 34.4175 17.9864 34.4175C17.187 34.4175 16.5874 34.2197 16.1877 33.8241L15.9879 38.967C16.5874 39.1648 17.187 39.1648 17.7865 39.1648C17.9864 39.1648 18.1862 39.1648 18.3861 39.1648C18.5859 39.1648 18.9856 39.1648 19.1855 39.1648C22.3831 38.7692 24.9811 36.3956 25.3808 32.8351C25.3808 32.6373 25.3808 32.6373 25.3808 32.4395C25.5807 32.4395 25.5807 32.2417 25.5807 32.0439Z" fill="#BA2029"/>
<path d="M72.3454 22.1538C72.5452 21.956 72.7451 21.956 72.9449 21.956C73.7443 21.7582 74.3439 21.7582 75.1433 22.1538C75.543 22.3516 75.9427 22.5494 76.1425 22.945L76.5422 23.3406L78.9404 20.7692L78.5407 20.3736C77.9412 19.7802 77.1418 19.3846 76.3424 19.1868C74.7436 18.5934 73.3446 18.5934 71.7458 18.989C71.1463 19.1868 70.5467 19.3846 69.9472 19.7802C69.3476 20.1758 68.9479 20.5714 68.5482 21.1648C68.1485 21.7582 67.9487 22.5494 67.9487 23.3406C67.9487 24.1318 68.1485 24.7252 68.3484 25.3186C68.5482 25.912 68.9479 26.3077 69.3476 26.7033C69.7473 27.0989 70.147 27.2967 70.7466 27.4945C71.1463 27.6923 71.7458 27.8901 72.1455 28.0879L73.5445 28.4835C73.9442 28.6813 74.3439 28.6813 74.5437 28.8791C74.7436 29.0769 74.9434 29.2747 75.1433 29.4725C75.3431 29.6703 75.3431 29.8681 75.3431 30.0659C75.3431 30.4615 75.3431 30.6593 75.1433 30.8571C74.9434 31.0549 74.9434 31.2527 74.7436 31.4505C74.3439 31.4505 74.144 31.6483 73.9442 31.6483C73.1448 31.8461 72.3454 31.8461 71.546 31.4505C70.9464 31.2527 70.5467 30.8571 70.3469 30.4615L69.9472 30.0659L67.3491 32.4395L67.549 32.8351C68.1485 33.6263 68.9479 34.2197 69.9472 34.6153C70.9464 35.0109 71.9457 35.2087 72.9449 35.2087C73.7443 35.2087 74.3439 35.0109 75.1433 34.8131C75.9427 34.6153 76.5422 34.2197 76.9419 33.8241C77.5415 33.4285 77.9412 32.8351 78.141 32.2417C78.5407 31.6483 78.5407 30.8571 78.5407 30.0659C78.5407 29.2747 78.3409 28.6813 78.141 28.0879C77.7413 27.4945 77.5415 27.0989 76.9419 26.7033C76.5422 26.3077 75.9427 26.1098 75.3431 25.912C74.7436 25.7142 74.3439 25.5164 73.9442 25.3186C73.5445 25.1208 73.1448 25.1208 72.7451 24.923C72.3454 24.7252 72.1455 24.7252 71.9457 24.5274C71.7458 24.3296 71.546 24.3296 71.546 24.1318C71.546 23.934 71.3461 23.7362 71.3461 23.5384C71.3461 23.3406 71.3461 23.1428 71.546 22.945C71.9457 22.5494 72.1455 22.3516 72.3454 22.1538Z" fill="#BA2029"/>
<path d="M88.5332 19.1868L81.7383 34.6153H85.7353L87.1342 31.2527H92.9299L94.3288 34.6153H98.3258L91.5309 19.1868H88.5332ZM91.5309 28.0879H88.3333L89.9321 23.934L91.5309 28.0879Z" fill="#BA2029"/>
<path d="M105.521 19.1868H101.923V34.6153H111.716V31.2527H105.521V19.1868Z" fill="#BA2029"/>
<path d="M119.909 23.3406C120.309 22.945 120.709 22.5494 121.308 22.3516C122.508 21.7582 124.106 21.7582 125.305 22.3516C125.905 22.5494 126.305 22.945 126.704 23.3406L127.104 23.7362L129.502 21.1647L129.103 20.7691C128.503 20.1757 127.704 19.7801 126.505 19.3845C124.506 18.7911 121.908 18.5933 119.71 19.3845C118.71 19.7801 117.711 20.3735 117.112 20.9669C116.312 21.7582 115.713 22.5494 115.313 23.5384C114.913 24.5274 114.713 25.7142 114.713 26.901C114.713 28.0878 114.913 29.2746 115.313 30.2636C115.713 31.2527 116.312 32.0439 117.112 32.8351C117.911 33.6263 118.71 34.0219 119.71 34.4175C120.709 34.8131 121.908 35.0109 123.107 35.0109C124.306 35.0109 125.305 34.8131 126.305 34.6153C127.304 34.4175 128.103 34.0219 128.903 33.8241L129.103 33.6263V25.3186H122.508V28.4834H125.905V31.4505C125.305 31.6483 124.306 31.6483 123.507 31.6483C122.707 31.6483 122.108 31.4505 121.508 31.2527C120.909 31.0549 120.509 30.6592 120.109 30.2636C119.71 29.868 119.31 29.2746 119.11 28.6812C118.91 28.0878 118.71 27.4944 118.71 26.7032C118.71 25.912 118.91 25.3186 119.11 24.7252C119.31 24.3296 119.51 23.7362 119.909 23.3406Z" fill="#BA2029"/>
<path d="M149.887 23.5384C149.487 22.5494 148.888 21.7582 148.088 20.967C147.289 20.1758 146.489 19.7801 145.49 19.3845C143.492 18.5933 140.894 18.5933 138.895 19.3845C137.896 19.7801 136.897 20.3736 136.297 20.967C135.498 21.7582 134.898 22.5494 134.498 23.5384C134.099 24.5274 133.899 25.7142 133.899 26.901C133.899 28.0878 134.099 29.2747 134.498 30.2637C134.898 31.2527 135.498 32.0439 136.297 32.8351C137.097 33.6263 137.896 34.0219 138.895 34.4175C139.894 34.8131 141.094 35.0109 142.293 35.0109C143.492 35.0109 144.691 34.8131 145.69 34.4175C146.689 34.0219 147.689 33.4285 148.288 32.8351C149.087 32.0439 149.687 31.2527 150.087 30.2637C150.486 29.2747 150.686 28.0878 150.686 26.901C150.486 25.5164 150.287 24.5274 149.887 23.5384ZM146.689 26.7032C146.689 27.4944 146.489 28.0878 146.29 28.6812C146.09 29.2747 145.69 29.8681 145.29 30.2637C144.891 30.6593 144.491 31.0549 143.891 31.2527C142.692 31.6483 141.293 31.6483 140.094 31.2527C139.495 31.0549 139.095 30.6593 138.695 30.2637C138.296 29.8681 137.896 29.2747 137.696 28.6812C137.496 28.0878 137.296 27.4944 137.296 26.7032C137.296 25.912 137.496 25.3186 137.696 24.7252C137.896 24.1318 138.296 23.5384 138.695 23.1428C139.095 22.7472 139.495 22.3516 140.094 22.1538C140.694 21.956 141.293 21.7582 141.893 21.7582C142.492 21.7582 143.292 21.956 143.692 22.1538C144.291 22.3516 144.691 22.7472 145.091 23.1428C145.49 23.5384 145.89 24.1318 146.09 24.7252C146.489 25.5164 146.689 26.1098 146.689 26.7032Z" fill="#BA2029"/>
<path d="M27.1796 54C12.1908 54 0 41.9341 0 26.9011C0 11.8681 12.1908 0 27.1796 0C42.1683 0 54.3591 12.0659 54.3591 26.9011C54.3591 41.7363 42.3681 54 27.1796 54ZM27.1796 1.58242C13.1901 1.58242 1.5988 13.0549 1.5988 26.9011C1.5988 40.7473 13.1901 52.2198 27.1796 52.2198C41.169 52.2198 52.7603 40.7473 52.7603 26.9011C52.7603 13.0549 41.3689 1.58242 27.1796 1.58242Z" fill="#257E94"/>
<path d="M153.484 21.5605H158.281V34.4177H161.079V21.5605H165.875V19.1869H153.484V21.5605Z" fill="#257E94"/>
<path d="M173.469 27.6924H180.464V25.5166H173.469V21.5605H180.864V19.1869H170.671V34.4177H181.263V32.044H173.469V27.6924Z" fill="#257E94"/>
<path d="M196.252 32.044C195.653 32.4396 194.853 32.4396 194.054 32.4396C193.254 32.4396 192.455 32.2418 191.855 32.044C191.256 31.8462 190.656 31.4506 190.257 30.8572C189.857 30.2638 189.457 29.6704 189.257 29.077C189.058 28.4836 188.858 27.6924 188.858 26.7033C188.858 25.9121 189.058 25.1209 189.257 24.5275C189.457 23.9341 189.857 23.3407 190.257 22.7473C190.656 22.1539 191.256 21.7583 191.855 21.5605C192.455 21.3627 193.254 21.1649 194.054 21.1649C194.653 21.1649 195.253 21.3627 196.052 21.5605C196.652 21.7583 197.251 22.1539 197.651 22.7473L199.849 21.1649C199.45 20.7693 199.25 20.3737 198.65 20.1759C198.251 19.7803 197.851 19.5825 197.251 19.3847C196.852 19.1869 196.252 18.9891 195.653 18.9891C195.053 18.9891 194.653 18.7913 194.054 18.7913C192.855 18.7913 191.656 18.9891 190.656 19.3847C189.657 19.7803 188.658 20.3737 188.058 20.9671C187.259 21.5605 186.659 22.5495 186.26 23.5385C185.86 24.5275 185.66 25.7143 185.66 26.9012C185.66 28.088 185.86 29.2748 186.26 30.2638C186.659 31.2528 187.259 32.044 188.058 32.8352C188.858 33.6264 189.657 34.022 190.656 34.4176C191.656 34.8132 192.855 35.011 194.054 35.011C195.453 35.011 196.452 34.8132 197.451 34.2198C198.451 33.8242 199.25 33.033 200.049 32.2418L197.851 30.6594C197.451 31.2528 196.852 31.6484 196.252 32.044Z" fill="#257E94"/>
<path d="M214.439 25.3188H207.244V19.1869H204.446V34.4177H207.244V27.6924H214.439V34.4177H217.237V19.1869H214.439V25.3188Z" fill="#257E94"/>
<path d="M234.224 30.6594L227.029 19.1869H223.432V34.4177H226.23V22.7473L233.624 34.4177H237.021V19.1869H234.224V30.6594Z" fill="#257E94"/>
<path d="M246.215 19.1869H243.417V34.6155H246.215V19.1869Z" fill="#257E94"/>
<path d="M258.406 26.3078L265.6 19.1869H261.803L255.408 25.7144H255.208V19.1869H252.61V34.4177H255.208V26.9012H255.408L262.203 34.4177H266L258.406 26.3078Z" fill="#257E94"/>
<path d="M33.375 25.5165V38.967V39.1648H33.5748H37.5718H37.9715V38.967V25.5165V21.9561H33.375V25.5165Z" fill="#257E94"/>
<path d="M42.9676 14.8352H28.1787V18.9891H42.9676V14.8352Z" fill="#257E94"/>
</svg>
