<svg width="175" height="177" viewBox="0 0 175 177" fill="none" xmlns="http://www.w3.org/2000/svg">
<path d="M119.992 94.7775C128.613 87.9551 134.906 78.5995 137.994 68.0123C141.083 57.4251 140.814 46.1329 137.225 35.7065C133.636 25.2802 126.906 16.2382 117.971 9.83864C109.035 3.43903 98.3387 0 87.3696 0C76.4005 0 65.7041 3.43903 56.7686 9.83864C47.8331 16.2382 41.1028 25.2802 37.514 35.7065C33.9252 46.1329 33.6564 57.4251 36.745 68.0123C39.8336 78.5995 46.126 87.9551 54.7468 94.7775C39.9749 100.73 27.0859 110.604 17.4538 123.346C7.82182 136.087 1.80784 151.219 0.0530392 167.129C-0.0739822 168.29 0.0276843 169.466 0.352232 170.588C0.676779 171.71 1.21785 172.756 1.94456 173.668C3.41221 175.509 5.54689 176.689 7.87899 176.947C10.2111 177.205 12.5496 176.52 14.38 175.044C16.2105 173.568 17.3829 171.42 17.6395 169.075C19.5703 151.785 27.7665 135.816 40.662 124.22C53.5575 112.624 70.2483 106.214 87.5454 106.214C104.843 106.214 121.533 112.624 134.429 124.22C147.324 135.816 155.521 151.785 157.451 169.075C157.691 171.248 158.721 173.255 160.345 174.709C161.969 176.163 164.071 176.96 166.245 176.947H167.212C169.517 176.68 171.624 175.507 173.073 173.685C174.523 171.863 175.197 169.538 174.95 167.217C173.187 151.263 167.14 136.092 157.459 123.331C147.777 110.569 134.826 100.699 119.992 94.7775ZM87.3696 88.4976C80.4131 88.4976 73.6127 86.4226 67.8286 82.5351C62.0445 78.6475 57.5363 73.122 54.8741 66.6572C52.212 60.1924 51.5154 53.0788 52.8726 46.2158C54.2297 39.3528 57.5796 33.0488 62.4986 28.1009C67.4176 23.1529 73.6848 19.7833 80.5077 18.4182C87.3306 17.0531 94.4026 17.7537 100.83 20.4315C107.257 23.1093 112.75 27.644 116.615 33.4622C120.48 39.2803 122.542 46.1206 122.542 53.118C122.542 62.5013 118.837 71.5002 112.241 78.1352C105.644 84.7701 96.698 88.4976 87.3696 88.4976Z" fill="#F1F1F1"/>
</svg>
