<svg width="140" height="140" viewBox="0 0 140 140" fill="none" xmlns="http://www.w3.org/2000/svg">
<path d="M65.4323 83.2099C65.4323 75.8025 61.7286 69.6296 55.0619 66.4198C50.6175 64.1975 46.173 64.1975 45.6792 64.1975C41.7286 64.1975 37.778 61.7284 37.778 57.284C37.778 52.0988 41.2348 49.6296 45.6792 49.6296C49.8767 49.6296 53.3335 51.8519 53.3335 56.2963V57.037H63.9508H64.9385V56.2963C64.6915 45.4321 56.2965 38.2716 45.4323 38.2716C35.3088 38.2716 25.6792 45.4321 25.6792 57.284C25.6792 64.6914 29.3829 70.3704 36.0496 73.3333C40.7409 75.5556 44.9385 75.5556 45.4323 75.5556C48.8891 75.8025 53.3335 78.5185 53.3335 83.2099C53.3335 83.7037 53.3335 84.1975 53.0866 84.4444C52.8397 85.1852 52.8397 85.679 52.5928 86.1728C51.6051 88.1482 49.6298 89.3827 47.4076 89.8765C46.6669 89.8765 46.173 90.1235 45.4323 90.1235C43.7039 90.1235 41.9755 89.6296 40.7409 88.642L40.494 100.741C41.9755 101.235 43.457 101.481 45.1854 101.481H45.4323C45.9261 101.481 46.4199 101.481 46.6669 101.481C47.4076 101.481 48.1483 101.481 48.8891 101.235C57.0372 100 63.9508 94.321 64.6915 84.9383C64.6915 84.6914 64.9385 84.4444 64.9385 83.9506C65.4323 83.9506 65.4323 83.4568 65.4323 83.2099Z" fill="#BA2029"/>
<path d="M69.8765 140C31.358 140 0 108.642 0 69.8765C0 31.1111 31.358 0 69.8765 0C108.395 0 139.753 31.358 139.753 69.8765C139.753 108.395 108.642 140 69.8765 140ZM69.8765 4.19753C33.5802 4.19753 3.95062 33.8272 3.95062 70.1235C3.95062 106.42 33.5802 135.802 69.8765 135.802C106.173 135.802 135.802 106.42 135.802 69.8765C135.802 33.3333 106.42 4.19753 69.8765 4.19753Z" fill="white"/>
<path d="M85.4321 66.4197V100.988V101.728H86.4198H96.5432H97.5309V100.988V66.4197V57.037H85.4321V66.4197Z" fill="white"/>
<path d="M110.37 38.2716H72.3457V49.1358H110.37V38.2716Z" fill="white"/>
</svg>
