<svg width="155" height="14" viewBox="0 0 155 14" fill="none" xmlns="http://www.w3.org/2000/svg">
<path d="M3.89842 3.38451C4.05436 3.23017 4.2103 3.23017 4.36623 3.23017C4.98998 3.07583 5.45779 3.07583 6.08154 3.38451C6.39341 3.53885 6.70528 3.69319 6.86122 4.00187L7.1731 4.31055L9.04434 2.30413L8.73246 1.99546C8.26465 1.53244 7.64091 1.22376 7.01716 1.06942C5.76967 0.606402 4.67811 0.606403 3.43061 0.915082C2.9628 1.06942 2.49499 1.22376 2.02718 1.53244C1.55937 1.84112 1.24749 2.14979 0.935619 2.61281C0.623745 3.07583 0.46781 3.69319 0.46781 4.31055C0.46781 4.9279 0.623748 5.39092 0.779685 5.85394C0.935621 6.31696 1.2475 6.62563 1.55937 6.93431C1.87124 7.24299 2.18312 7.39733 2.65093 7.55167C2.9628 7.70601 3.43061 7.86035 3.74248 8.01469L4.83404 8.32337C5.14592 8.47771 5.45779 8.47771 5.61373 8.63205C5.76966 8.78639 5.9256 8.94072 6.08154 9.09506C6.23747 9.2494 6.23748 9.40374 6.23748 9.55808C6.23748 9.86676 6.23747 10.0211 6.08154 10.1754C5.9256 10.3298 5.9256 10.4841 5.76967 10.6385C5.45779 10.6385 5.30185 10.7928 5.14592 10.7928C4.52217 10.9471 3.89842 10.9471 3.27467 10.6385C2.80686 10.4841 2.49499 10.1754 2.33905 9.86676L2.02718 9.55808L0 11.4102L0.155935 11.7188C0.623745 12.3362 1.24749 12.7992 2.02718 13.1079C2.80686 13.4166 3.58655 13.5709 4.36623 13.5709C4.98998 13.5709 5.45779 13.4166 6.08154 13.2622C6.70528 13.1079 7.1731 12.7992 7.48497 12.4905C7.95278 12.1818 8.26465 11.7188 8.42059 11.2558C8.73246 10.7928 8.73246 10.1754 8.73246 9.55808C8.73246 8.94072 8.57653 8.47771 8.42059 8.01469C8.10872 7.55167 7.95278 7.24299 7.48497 6.93431C7.1731 6.62563 6.70529 6.4713 6.23748 6.31696C5.76967 6.16262 5.45779 6.00828 5.14592 5.85394C4.83404 5.6996 4.52217 5.6996 4.2103 5.54526C3.89842 5.39092 3.74248 5.39092 3.58655 5.23658C3.43061 5.08224 3.27467 5.08224 3.27467 4.9279C3.27467 4.77356 3.11874 4.61922 3.11874 4.46488C3.11874 4.31054 3.11874 4.15621 3.27467 4.00187C3.58655 3.69319 3.74249 3.53885 3.89842 3.38451Z" fill="white"/>
<path d="M16.5304 1.06934L11.2285 13.1078H14.3473L15.4388 10.484H19.961L21.0525 13.1078H24.1713L18.8694 1.06934H16.5304ZM18.8694 8.0146H16.3744L17.6219 4.77348L18.8694 8.0146Z" fill="white"/>
<path d="M29.7844 1.06934H26.9775V13.1078H34.6185V10.484H29.7844V1.06934Z" fill="white"/>
<path d="M41.0124 4.31062C41.3242 4.00194 41.6361 3.69327 42.1039 3.53893C43.0395 3.07591 44.287 3.07591 45.2227 3.53893C45.6905 3.69327 46.0023 4.00194 46.3142 4.31062L46.6261 4.6193L48.4973 2.61289L48.1855 2.30421C47.7176 1.84119 47.0939 1.53252 46.1583 1.22384C44.5989 0.76082 42.5717 0.60648 40.8564 1.22384C40.0767 1.53252 39.2971 1.99553 38.8292 2.45855C38.2055 3.07591 37.7377 3.69327 37.4258 4.46496C37.1139 5.23666 36.958 6.16269 36.958 7.08873C36.958 8.01477 37.1139 8.9408 37.4258 9.7125C37.7377 10.4842 38.2055 11.1016 38.8292 11.7189C39.453 12.3363 40.0767 12.6449 40.8564 12.9536C41.6361 13.2623 42.5717 13.4166 43.5074 13.4166C44.443 13.4166 45.2227 13.2623 46.0023 13.108C46.782 12.9536 47.4058 12.6449 48.0295 12.4906L48.1855 12.3363V5.85402H43.0395V8.32344H45.6905V10.6385C45.2227 10.7929 44.443 10.7929 43.8192 10.7929C43.1955 10.7929 42.7277 10.6385 42.2599 10.4842C41.792 10.3299 41.4802 10.0212 41.1683 9.7125C40.8564 9.40382 40.5446 8.9408 40.3886 8.47778C40.2327 8.01477 40.0767 7.55175 40.0767 6.93439C40.0767 6.31703 40.2327 5.85402 40.3886 5.391C40.5446 5.08232 40.7005 4.6193 41.0124 4.31062Z" fill="white"/>
<path d="M64.4007 4.46488C64.0889 3.69319 63.621 3.07583 62.9973 2.45847C62.3736 1.84112 61.7498 1.53244 60.9701 1.22376C59.4108 0.606403 57.3836 0.606403 55.8242 1.22376C55.0445 1.53244 54.2648 1.99546 53.797 2.45847C53.1733 3.07583 52.7055 3.69319 52.3936 4.46488C52.0817 5.23658 51.9258 6.16262 51.9258 7.08865C51.9258 8.01469 52.0817 8.94072 52.3936 9.71242C52.7055 10.4841 53.1733 11.1015 53.797 11.7188C54.4208 12.3362 55.0445 12.6449 55.8242 12.9535C56.6039 13.2622 57.5395 13.4166 58.4751 13.4166C59.4107 13.4166 60.3464 13.2622 61.1261 12.9535C61.9057 12.6449 62.6854 12.1818 63.1532 11.7188C63.777 11.1015 64.2448 10.4841 64.5567 9.71242C64.8685 8.94072 65.0245 8.01469 65.0245 7.08865C64.8685 6.00828 64.7126 5.23658 64.4007 4.46488ZM61.9057 6.93431C61.9057 7.55167 61.7498 8.01469 61.5939 8.47771C61.4379 8.94072 61.1261 9.40374 60.8142 9.71242C60.5023 10.0211 60.1904 10.3298 59.7226 10.4841C58.787 10.7928 57.6954 10.7928 56.7598 10.4841C56.292 10.3298 55.9801 10.0211 55.6683 9.71242C55.3564 9.40374 55.0445 8.94072 54.8886 8.47771C54.7326 8.01469 54.5767 7.55167 54.5767 6.93431C54.5767 6.31696 54.7326 5.85394 54.8886 5.39092C55.0445 4.9279 55.3564 4.46488 55.6683 4.15621C55.9801 3.84753 56.292 3.53885 56.7598 3.38451C57.2276 3.23017 57.6954 3.07583 58.1633 3.07583C58.6311 3.07583 59.2548 3.23017 59.5667 3.38451C60.0345 3.53885 60.3464 3.84753 60.6582 4.15621C60.9701 4.46488 61.282 4.9279 61.4379 5.39092C61.7498 6.00828 61.9057 6.47129 61.9057 6.93431Z" fill="white"/>
<path d="M67.208 2.92165H70.9505V12.9537H73.1336V2.92165H76.8761V1.06958H67.208V2.92165Z" fill="white"/>
<path d="M82.8032 7.70617H88.261V6.00844H82.8032V2.92165H88.5729V1.06958H80.6201V12.9537H88.8848V11.1016H82.8032V7.70617Z" fill="white"/>
<path d="M100.579 11.1015C100.111 11.4102 99.4875 11.4102 98.8638 11.4102C98.2401 11.4102 97.6163 11.2558 97.1485 11.1015C96.6807 10.9471 96.2129 10.6385 95.901 10.1754C95.5891 9.71242 95.2772 9.2494 95.1213 8.78638C94.9654 8.32337 94.8094 7.70601 94.8094 6.93431C94.8094 6.31696 94.9654 5.6996 95.1213 5.23658C95.2772 4.77356 95.5891 4.31055 95.901 3.84753C96.2129 3.38451 96.6807 3.07583 97.1485 2.92149C97.6163 2.76715 98.2401 2.61281 98.8638 2.61281C99.3316 2.61281 99.7994 2.76715 100.423 2.92149C100.891 3.07583 101.359 3.38451 101.671 3.84753L103.386 2.61281C103.074 2.30413 102.918 1.99546 102.45 1.84112C102.138 1.53244 101.827 1.3781 101.359 1.22376C101.047 1.06942 100.579 0.915082 100.111 0.915082C99.6435 0.915082 99.3316 0.760742 98.8638 0.760742C97.9282 0.760742 96.9926 0.915082 96.2129 1.22376C95.4332 1.53244 94.6535 1.99546 94.1857 2.45847C93.5619 2.92149 93.0941 3.69319 92.7823 4.46488C92.4704 5.23658 92.3145 6.16262 92.3145 7.08865C92.3145 8.01469 92.4704 8.94072 92.7823 9.71242C93.0941 10.4841 93.5619 11.1015 94.1857 11.7188C94.8094 12.3362 95.4332 12.6449 96.2129 12.9535C96.9926 13.2622 97.9282 13.4166 98.8638 13.4166C99.9554 13.4166 100.735 13.2622 101.515 12.7992C102.294 12.4905 102.918 11.8732 103.542 11.2558L101.827 10.0211C101.515 10.4841 101.047 10.7928 100.579 11.1015Z" fill="white"/>
<path d="M114.77 5.85385H109.156V1.06934H106.973V12.9535H109.156V7.70592H114.77V12.9535H116.953V1.06934H114.77V5.85385Z" fill="white"/>
<path d="M130.208 10.0213L124.594 1.06958H121.787V12.9537H123.97V3.84769L129.74 12.9537H132.391V1.06958H130.208V10.0213Z" fill="white"/>
<path d="M139.563 1.06958H137.38V13.108H139.563V1.06958Z" fill="white"/>
<path d="M149.074 6.62579L154.688 1.06958H151.725L146.735 6.16278H146.579V1.06958H144.552V12.9537H146.579V7.08881H146.735L152.037 12.9537H155L149.074 6.62579Z" fill="white"/>
</svg>
