<svg width="26" height="25" viewBox="0 0 26 25" fill="none" xmlns="http://www.w3.org/2000/svg">
<path d="M15.65 21.1099C16.0069 20.9039 16.2663 20.5628 16.3712 20.1618C16.4761 19.7607 16.4178 19.3325 16.2093 18.9713L15.4231 17.6096C15.2146 17.2484 14.8729 16.9839 14.4731 16.8742C14.0733 16.7645 13.6483 16.8186 13.2914 17.0247C10.6004 18.5783 9.02797 15.8548 8.24176 14.4931C7.45555 13.1313 5.88314 10.4078 8.57416 8.85415C8.93101 8.64813 9.19041 8.30707 9.2953 7.906C9.40019 7.50494 9.34197 7.07673 9.13346 6.71557L8.34725 5.35382C8.13873 4.99266 7.797 4.72814 7.39723 4.61845C6.99745 4.50875 6.57238 4.56287 6.21553 4.7689C2.85176 6.71098 1.6197 9.23797 5.55074 16.0467C9.48178 22.8555 12.2862 23.052 15.65 21.1099Z" stroke="#FCFEFE" stroke-width="2" stroke-linecap="round" stroke-linejoin="round"/>
<path d="M22.811 15.4866C23.5257 12.7479 23.1275 9.82436 21.7038 7.35845C20.2801 4.89254 17.9474 3.08591 15.2182 2.3355M18.6914 14.3562C18.9044 13.5429 18.9554 12.6936 18.8418 11.8569C18.7281 11.0202 18.452 10.2126 18.0291 9.48005C17.6061 8.74754 17.0448 8.10453 16.377 7.58777C15.7093 7.07101 14.9482 6.69061 14.1373 6.46831M14.594 13.2176C14.7369 12.6696 14.6572 12.0847 14.3723 11.5913C14.0874 11.0979 13.6207 10.7363 13.0747 10.5861" stroke="#BA2029" stroke-width="2" stroke-linecap="round" stroke-linejoin="round"/>
</svg>
