<svg width="32" height="27" viewBox="0 0 32 27" fill="none" xmlns="http://www.w3.org/2000/svg">
<path d="M17.9471 13.8494C18.7945 13.1159 19.4742 12.2086 19.9401 11.1892C20.406 10.1697 20.6471 9.06201 20.6471 7.94118C20.6471 5.83505 19.8104 3.81518 18.3211 2.32592C16.8319 0.836657 14.812 0 12.7059 0C10.5998 0 8.57988 0.836657 7.09062 2.32592C5.60136 3.81518 4.76471 5.83505 4.76471 7.94118C4.76469 9.06201 5.0058 10.1697 5.47167 11.1892C5.93754 12.2086 6.61726 13.1159 7.46471 13.8494C5.2414 14.8562 3.35509 16.482 2.03132 18.5324C0.707551 20.5828 0.00233765 22.9711 0 25.4118C0 25.833 0.167331 26.237 0.465183 26.5348C0.763035 26.8327 1.16701 27 1.58824 27C2.00946 27 2.41344 26.8327 2.71129 26.5348C3.00914 26.237 3.17647 25.833 3.17647 25.4118C3.17647 22.8844 4.18046 20.4606 5.96757 18.6735C7.75468 16.8863 10.1785 15.8824 12.7059 15.8824C15.2332 15.8824 17.6571 16.8863 19.4442 18.6735C21.2313 20.4606 22.2353 22.8844 22.2353 25.4118C22.2353 25.833 22.4026 26.237 22.7005 26.5348C22.9983 26.8327 23.4023 27 23.8235 27C24.2448 27 24.6487 26.8327 24.9466 26.5348C25.2444 26.237 25.4118 25.833 25.4118 25.4118C25.4094 22.9711 24.7042 20.5828 23.3804 18.5324C22.0567 16.482 20.1704 14.8562 17.9471 13.8494ZM12.7059 12.7059C11.7635 12.7059 10.8423 12.4264 10.0588 11.9029C9.2752 11.3793 8.6645 10.6352 8.30387 9.76455C7.94324 8.89391 7.84888 7.93589 8.03273 7.01163C8.21658 6.08737 8.67037 5.23838 9.33673 4.57202C10.0031 3.90566 10.8521 3.45187 11.7763 3.26802C12.7006 3.08418 13.6586 3.17853 14.5293 3.53916C15.3999 3.89979 16.144 4.5105 16.6676 5.29405C17.1911 6.0776 17.4706 6.99881 17.4706 7.94118C17.4706 9.20485 16.9686 10.4168 16.075 11.3103C15.1815 12.2039 13.9696 12.7059 12.7059 12.7059ZM31.3041 8.94176C31.1565 8.7929 30.9808 8.67475 30.7873 8.59411C30.5937 8.51348 30.3861 8.47197 30.1765 8.47197C29.9668 8.47197 29.7592 8.51348 29.5657 8.59411C29.3721 8.67475 29.1965 8.7929 29.0488 8.94176L25.8724 12.1182L24.8876 11.1176C24.74 10.9688 24.5643 10.8506 24.3708 10.77C24.1773 10.6894 23.9697 10.6478 23.76 10.6478C23.5503 10.6478 23.3427 10.6894 23.1492 10.77C22.9557 10.8506 22.78 10.9688 22.6324 11.1176C22.3365 11.4152 22.1705 11.8178 22.1705 12.2374C22.1705 12.6569 22.3365 13.0595 22.6324 13.3571L24.7606 15.4853C25.0582 15.7811 25.4607 15.9471 25.8803 15.9471C26.2999 15.9471 26.7024 15.7811 27 15.4853L31.2406 11.2447C31.4009 11.1007 31.5303 10.9255 31.6208 10.7299C31.7113 10.5343 31.761 10.3223 31.767 10.1069C31.7729 9.89143 31.7349 9.67703 31.6554 9.47672C31.5758 9.27642 31.4563 9.0944 31.3041 8.94176Z" fill="#BA2029"/>
</svg>
